<?xml version="1.0" encoding="utf-8"?>
<!-- Generator: Adobe Illustrator 24.2.1, SVG Export Plug-In . SVG Version: 6.00 Build 0)  -->
<svg version="1.1" id="Layer_19" xmlns="http://www.w3.org/2000/svg" xmlns:xlink="http://www.w3.org/1999/xlink" x="0px" y="0px"
	 viewBox="0 0 738.2 636.3" style="enable-background:new 0 0 738.2 636.3;" xml:space="preserve">
<style type="text/css">
	.st0{fill:#F89594;}
	.st1{fill:#E07E7E;}
	.st2{fill:#F8A694;}
	.st3{fill:#FFB3B3;}
	.st4{fill:#D06C6A;}
	.st5{fill:#03339A;}
	.st6{fill:#021D4E;}
	.st7{fill:#C65C59;}
	.st8{fill:#A54444;}
	.st9{fill:none;stroke:#020202;stroke-width:0.5593;stroke-miterlimit:10;}
	.st10{fill:#FCB100;}
	.st11{fill:#ED9201;}
	.st12{fill:#FFC969;}
	.st13{fill:#935A07;}
	.st14{fill:#223FAA;}
	.st15{fill:#17377F;}
	.st16{fill:#3956D4;}
	.st17{fill:#4869E0;}
	.st18{fill:#0D1F47;}
	.st19{fill:#34B0FC;}
	.st20{fill:#0A1A35;}
	.st21{fill:#102849;}
	.st22{fill:none;stroke:#2D48AA;stroke-width:2;stroke-linecap:round;stroke-miterlimit:10;}
	.st23{fill:#173456;}
	.st24{fill:none;stroke:#06101C;stroke-miterlimit:10;}
	.st25{enable-background:new    ;}
	.st26{fill:#779273;}
	.st27{fill:#8DB290;}
	.st28{fill:#A6C7A8;}
	.st29{fill:#D5B3AA;}
	.st30{fill:#A98C7A;}
	.st31{fill:#F3D7D6;}
	.st32{fill:#966969;}
</style>
<g>
	<path class="st0" d="M705.6,533.6c-0.3,8.2-3.1,51.5-4.9,59.2c-1.8,7.7-4.1,23.9-4.1,23.9h-45.3c0,0,10.7-53.7,10.4-62.6
		c-0.3-8.9-19.5-99.5-19.5-99.5l25.5-6.9l32.3-8.7l2.1,12.8C702,451.9,705.9,525.3,705.6,533.6z"/>
	<path class="st1" d="M705.6,533.6c-0.3,8.2-3.1,51.5-4.9,59.2c-1.8,7.7-4.1,23.9-4.1,23.9h-30.5c5.4-19.7,15.3-59.3,15.3-83.5
		c0-23.9-8.8-64.4-13.7-85.4l32.3-8.7l2.1,12.8C702,451.9,705.9,525.3,705.6,533.6z"/>
	<path class="st2" d="M212.8,236.5c0,0-14.2-6.4-16.1-7.8s-3.7,6.6,2,10.5c5.7,3.9,16.9,7.2,16.9,7.2L212.8,236.5z"/>
	<path class="st0" d="M482.7,377.4c-31,20.7-146.6,16.4-146.6,16.4c-36.8-27.7-75-92.1-75-92.1c-1-0.1-2.1-0.2-3.3-0.4
		c-7.7-1.4-18.4-5.5-23.1-9.3c-5.4-4.3-24.6-2.3-25.5-9.1c-0.9-7.3,10.8-5.6,15.6-5.4c4.8,0.2,13.1,3.9,14.5,3.8
		c1.4-0.2-5.6-7.4-7.9-10.6c-2-2.7-6.4-13-8.9-16c-0.4-0.5-0.8-0.8-1.1-0.8c-2,0-9.5-7-11.7-7c-2.1,0-10.2-0.9-21.2,1.6
		c-4.5,1-6.9,0-8.3-1.5c-2-2.2-1.6-5.5-1.6-5.5s29.8-6.5,33.9-7.5c4.1-1.1,19.2,12.4,19.2,12.4s-3.8-13.8-6.3-22.2
		c-2.5-8.4-4-19.2-1.1-22.4c2.7-2.9,5.3,4.7,7.4,10.6c0.8,2.4,1.5,4.5,2.1,5.5c2.1,3.9,4,4.2,7.6,19.2c3.6,15.1,11.8,22.1,44,55.5
		c32.2,33.5,80.9,56.9,80.9,56.9c19.8,1.2,57.8-11.1,80.8-19.3c11.3-4.1,18.9-7.1,18.9-7.1l11.8,39.2L482.7,377.4z"/>
	<path class="st3" d="M447.3,330.1c-19.8,14.2-82.8,29.9-82.8,29.9c-6.4,17.8-18,16.4-13.8,15.4c4.2-1.1,7.7-13.5,7.7-15.7
		c0-2.1-41.4-28.4-41.4-28.4s-30.8-30.8-35.3-36.6c-4.5-5.8-24.9-25.2-31.6-33.4c-6.6-8.2-11.1-23.1-11.9-28.6
		c-0.8-5.6-5.6-11.7-6.6-15.4c-0.5-1.7-0.2-3.5,0.3-5c0.8,2.4,1.5,4.5,2.1,5.5c2.1,3.9,4,4.2,7.6,19.2c3.6,15.1,11.8,22.1,44,55.5
		c32.2,33.5,80.9,56.9,80.9,56.9C386.3,350.7,424.3,338.4,447.3,330.1z"/>
	<path class="st4" d="M482.7,377.4c-31,20.7-146.6,16.4-146.6,16.4c-36.8-27.7-75-92.1-75-92.1c3.1,1.7,19.6,16.5,25.1,24.8
		c5.5,8.3,27.9,35.3,33.9,42.1c6,6.7,20.9,19,30,19c9.1,0,117.5-21,122.1-25.2c1.2-1.1,3.3-1,5.8-0.3L482.7,377.4z"/>
	<path class="st4" d="M229,249.7c0,0-2.9,3-6.4,5c-0.4-0.5-0.8-0.8-1.1-0.8c-2,0-9.5-7-11.7-7c-2.1,0-10.2-0.9-21.2,1.6
		c-4.5,1-6.9,0-8.3-1.5c1.4,0.1,3.4,0,5.9-0.6c5.6-1.4,23.5-1.9,24-1.5c0.5,0.3,3.1-1,3.7-2.1c-0.3,1-1,3.3-1.4,3.5
		C212.1,246.4,223.6,251.8,229,249.7z"/>
	<g>
		<path class="st4" d="M240.9,279.3l-0.5-0.2c1.3-3-3.5-8.3-3.9-9.6c-5.7-1.4-8.2-9.9-10.6-12.6c-0.4-0.7-0.7-1.4-0.9-2
			c1.2,1.5,6.9,8.5,14,10.2l0.2,0l0,0.2C239.4,265.7,242.4,275.9,240.9,279.3z"/>
	</g>
	<path class="st5" d="M698.3,353c-4.2,14.3-68.2-27.8-68.2-27.8l19.8-63.3l6.9-22l3-9.5l-3.6-59.2c0,0,49.6,9.3,40.4,59.7
		c-2.9,15.9-7.2,25-11.8,30.6c-7.9,9.8-16.7,9.2-20.2,15.5c-0.9,1.6-1.5,3.8-1.6,6.6C662.4,303.4,702.5,338.7,698.3,353z"/>
	<path class="st6" d="M697.7,368.9c-11.2,23.5-17,12-17,12l-76.5-57.6l11.4-58.6L599,227.3l-9.3-20.8l-17-38.4
		c0,0,47.9-52.2,75.3-4.3c0,0,74.2,25.5,23.2,88.1c-4.1,5.1-9.1,10.4-14.9,15.9c-0.5,0.4-0.9,0.9-1.4,1.3c0,0-7.7,36.6,9.1,46
		C680.9,324.5,708.9,345.4,697.7,368.9z"/>
	<path class="st0" d="M655.3,349.4c0,0-13.5,17.8-29,28.2c-15.4,10.4-64.9,22.6-89.8,17.9c-24.9-4.6-17.4-48.5-15.6-53.5
		c1.7-5,30.1-34.7,35.3-34.6c5.2,0.2,10.1-1.6,10.1-1.6s0.3-0.3,0.7-1c2.7-3.9,10.6-18.3-15.4-24.9c-4-1-7.1-2.1-9.7-3.1
		c-16.9-7.2-5.9-15.6-3.4-18.4c2.8-3.2,0.8-5.4,0-5.7c-0.1,0-0.2-0.1-0.4-0.2c-1.2-0.7-4.1-2.9-3-6.4c1.3-4,5.7-3.3,5.7-3.3
		c-4.4-5.3-3.7-9.2-1.9-12c0.1-0.2,0.3-0.4,0.4-0.6c1.4-1.9,3.3-3.2,4.2-3.9c1.8-1.5,20.5-38.9,27.2-51.6c1.1-2.1,1.9-3.6,2.2-4
		c2.2-3.2,18.6-9.6,24.1-10.1c0,0,9.3-0.1,15.4,4.4c6.2,4.4,14.9,6,14.9,6c4.9-3.7,15.1-3.2,16.1-3.1c-5.2-0.3-15.3,5.8-15.3,5.8
		c3.2,4.3,3.3,8.7,1.7,13c-3.7,10.3-16.7,20.3-18.3,27.9c-1.5,6.9,5,14.3,10.1,19.4c2.9,2.9,5.3,5.1,5.5,6c0.2,1,0.5,1.1-0.1,3.8
		c-0.2,0.9-0.5,2.2-1,3.9c-0.8,2.8-2,6.9-3.9,12.9c-0.2,0.5-0.3,1.1-0.5,1.7c-0.5,1.6-1.1,3.4-1.7,5.3c-1.3,4.1-2.8,8.9-4.5,14.5v0
		c-0.5,1.7-1.1,3.5-1.7,5.3c-12.7,40.5,25.6,57,37.8,61.1C654,349.1,655.3,349.4,655.3,349.4z"/>
	<path class="st7" d="M550.4,245.6c-1.2,0-4.6,2.9-6.9,4.6c-1.5,1.1-3.8,1.9-5.3,2.3c-1.2-0.7-4.1-2.9-3-6.4c1.3-4,5.7-3.3,5.7-3.3
		c-1.3-1.6-2.1-3-2.7-4.3c-1.2-3.2-0.5-5.7,0.7-7.7c3.2-0.7,4.5,1,4.6,1.4c0,0.4,5.1,7.9,7,10.2
		C552.4,244.7,551.5,245.6,550.4,245.6z"/>
	<path class="st8" d="M548.5,243.8c0,0-4.8,0.4-7.6-1c-1.3-1.6-2.1-3-2.7-4.3C540.1,237.7,544,237.2,548.5,243.8z"/>
	<path class="st4" d="M607.3,265.6c-4.9,5.3-19.6,20.9-28.1,23.4c-10.3,3.1-9.4,24.2-10.3,26.5c-0.8,2.3-5.7,19.7-19.5,20.3
		c0,0,20-9.3,17.6-30.8c2.7-3.9,10.6-18.3-15.4-24.9c-4-1-7.1-2.1-9.7-3.1C557.3,279,591.7,281.5,607.3,265.6z"/>
	<path class="st4" d="M621.8,233.9c-1.1,0.8-2.2,2-3.5,3.6c-10.6,13.3-34.9,5.5-38.9,3c-4-2.5-21.9-3.2-24.6-3.6
		c-2.7-0.4-9-1.9-11.2-4.8c-1.1-1.4-3.3-1.6-4.6-1.4c1.2-2,3.8-3.8,4.6-4.6c1.8-1.5,20.5-38.9,27.2-51.6l59.1,12
		c-3.7,10.3-16.7,20.3-18.3,27.9C610.2,221.4,616.7,228.8,621.8,233.9z"/>
	<path class="st1" d="M651.8,348.3c-39.1,5.9-46.2-20.8-45.5-38.7c0.4-9.7,5-19.9,9.4-27.6c-0.5,1.7-1.1,3.5-1.7,5.3
		C601.3,327.8,639.6,344.2,651.8,348.3z"/>
	<path class="st9" d="M621.8,262.2c0.2-0.6,0.4-1.1,0.5-1.7"/>
	<path class="st4" d="M622.4,260.5c-0.2,0.5-0.3,1.1-0.5,1.7c-2.4,1.5-5.4,2.7-8.6,2.3c-7.1-1,0-15.9,3.8-19.2
		c0,0-8.5,12.9-1.9,15.2C617.9,261.5,620.4,261.2,622.4,260.5z"/>
	<path class="st4" d="M626.2,247.6c0.5-1.7,0.8-3,1-3.9"/>
	<path class="st4" d="M627.3,243.7c-0.2,0.9-0.5,2.2-1,3.9c-1,0.3-2.2,0.6-3.1,0.8c-2.1,0.5-4.1,2.4-5.2,2c-1.1-0.4,2.2-4.1,4.2-5.3
		c2-1.2,1-4.2,1-4.2C624.8,240.5,626.3,242.1,627.3,243.7z"/>
	<path class="st10" d="M701.8,449.8c-0.6-6.7-5.1-5.7-8.1-4.6c-0.6,0.3-1.3,0.7-2,1c-13.4,6.5-49.4,15.4-52.6,14.9
		c-0.2,0-0.3-0.1-0.2-0.2c0.1-0.3,0.2-0.6,0.3-1c0.4-2.2,0.2-6.1,0.2-6.1s-30.7,71.6-18.5,84.8c12.2,13.2,30.5,78.2,30.5,78.2
		l-32.8-0.1L463.2,616l-1.7,0c0,0,32.4-136.8,12.4-157.4c-21.1-21.8-6.3-44.2-4.1-47.5c1.9-2.8,6.8-20.8,8.5-28.7
		c0.3-1.5,0.5-2.7,0.6-3.3c0.2-3.7-8-13.3-11.3-19.1c-3.3-5.7-6.8-37.1-6.8-37.1s0,0,0,0c38.4-16.3,46.2-10.5,49.9-12.2
		s26.9-4.3,32-3.8c3.8,0.4,11.7,0.4,15.3,0.3c1.1,0,1.8,0,1.8,0c-27.1,18.9-55.2,67.5-7.3,78.1c35.5,7.9,72.4-16.3,89.2-29.3
		c5.9-4.6,9.3-7.8,9.3-7.8s14.2,2.9,34.3,14.5c15.3,8.9,15.8,36.4,15.5,50.5c-0.1,4.4-0.2,7.5-0.1,8.3c0.5,2.1,0.8,12.5,1,20.5
		C701.9,445.2,701.8,448,701.8,449.8z"/>
	<path class="st11" d="M618.5,616.6c1.5-8.8,6.8-40.4,4.2-40.8c-3-0.4-39.2,15.7-63.5,7.6c0,0,48.3-5.4,59.6-12.2
		c0,0-1.3-8.7-9.8-10.4c-8.4-1.7-76-20.3-78.1-20.9c2,0.4,66.4,14.4,70.9,14.4c4.6,0,18.5-8.3,9.1-17c-9.4-8.7-14.6-33.6-17.3-34.8
		c-2.8-1.3-6.5-10.5-4-10c2.5,0.4,52.5,8.8,37.9-54.6c0,0,4,9,4.4,12.7c0.3,3.7,1.9-8.4,2.2-16.5c0.3-8.1,0.5-18.4,3.7-13.9
		c0,0,3.9,8.7,3,13.9c-0.9,5.2-1.4,19.7-1.4,19.7s-30.7,71.6-18.5,84.8c12.2,13.2,30.5,78.2,30.5,78.2L618.5,616.6z"/>
	<path class="st11" d="M500.4,354.7c-1.9,5-12.8,17.6-22,27.7c0.3-1.5,0.5-2.7,0.6-3.3c0.2-3.7-8-13.3-11.3-19.1s-6.8-37.1-6.8-37.1
		s5,16.6,7.2,26.1c2.2,9.5,10.1,25,13,23.4C483.9,370.9,503.8,345.9,500.4,354.7z"/>
	<path class="st12" d="M484.4,468.4c0,0,4.4,23.8,2.4,36.5c-1.7,10.6-18.2,86.3-23.7,111.1l-1.7,0c0,0,32.4-136.8,12.4-157.4
		c-21.1-21.7-6.3-44.2-4.1-47.5c1.9-2.8,6.8-20.8,8.5-28.7c0,0-1.8,24.9-5.4,32.8c-3.6,7.9-5.9,17.4-2.8,25.4
		c3.2,7.9,7.5,24.6,36.5,22.6C535.6,461.2,484.4,468.4,484.4,468.4z"/>
	<path class="st13" d="M701.7,450c-2.3-2.1-10.5-2.5-13.9-2c0.7-0.4,5.3-2.5,5.9-2.8C696.7,444.1,702.6,443.4,701.7,450z"/>
	<path class="st12" d="M700.8,413.3c-2.5-7-5.2-15.2-8.2-24.6c-7.7-24.7-37.5-31-50.9-32.6c5.9-4.6,9.3-7.8,9.3-7.8
		s14.2,2.9,34.3,14.5C700.6,371.7,701.1,399.2,700.8,413.3z"/>
	<path class="st10" d="M511.2,328.2c0.3,3.1,0.3,5.6,0.3,5.6S511.1,331.4,511.2,328.2z"/>
	<path class="st12" d="M558,307.3c-10.3,6.2-30.4,5.9-39.4,7.1c-6.2,0.8-7.4,8.4-7.5,13.9c-0.5-4.6-1.8-10.7-5.3-12.1
		c-5.8-2.3-43.8,6.5-44.9,6.8c38.4-16.3,46.2-10.5,49.9-12.2s26.9-4.3,32-3.8C546.6,307.4,554.5,307.4,558,307.3z"/>
	<path class="st10" d="M559.9,307.3c-0.9,0.6-1.8,1.3-2.7,2c0.7-0.8,1.4-1.4,2-2C559.6,307.3,559.9,307.3,559.9,307.3z"/>
	<path class="st11" d="M618.5,616.6c1.5-8.8,6.8-40.4,4.2-40.8c-3-0.4-39.2,15.7-63.5,7.6c0,0,48.3-5.4,59.6-12.2
		c0,0-3.8-16.7-9.8-10.4c-12.7,13.2-64.1-18.8-66.2-19.4c2,0.4,54.7,17.9,59,12.9c3-3.5,18.5-8.3,9.1-17
		c-9.4-8.7-14.6-33.6-17.3-34.8c-2.8-1.3-38-28.7-35.4-28.3c2.5,0.4,80.1,39.7,69.3-36.3c0,0,4,9,4.4,12.7c0.3,3.7,1.9-8.4,2.2-16.5
		c0.3-8.1,0.5-18.4,3.7-13.9c0,0,3.9,8.7,3,13.9c-0.9,5.2-1.4,19.7-1.4,19.7s-30.7,71.6-18.5,84.8c12.2,13.2,30.5,78.2,30.5,78.2
		L618.5,616.6z"/>
	<path class="st4" d="M585.5,384.8c-10.7,2.5-21.8,3.1-32.9,0.6c-46.3-10.3-21.6-56,4.5-76.2c-9.4,9.8-32,36.3-24.8,58.2
		C538.4,385.7,566.9,386.4,585.5,384.8z"/>
	<path class="st12" d="M608.2,483.2c-23,6-49.8-9.3-49.8-9.3s61.4,15,65.4-20C627.2,422.9,638.3,475.3,608.2,483.2z"/>
	<path class="st14" d="M613.6,204.8c0,0-3.8,10-11.1,22.8c-7.3,12.8-24.1,10.1-24.1,10.1s-13.9-2.8-18.8-4.7c-1.8-0.7-2.8-1.9-3.3-3
		c-0.9-1.9-0.4-3.7-0.4-3.7s5.5-17.2,10.5-32.4c3.7-11.2,7.2-21.3,8.2-22.7c2.3-3.4,7.8-2.5,7.8-2.5s12.8,6.1,24.7,15.1
		S613.6,204.8,613.6,204.8z"/>
	<path class="st15" d="M609.9,199.2c-5.7,27.6-15.6,33.7-22.2,34.9c-3.6,0.7-18.5-1.8-31.3-4.1c-0.9-1.9-0.4-3.7-0.4-3.7
		s5.5-17.2,10.5-32.4c8.2-6.8,16.7-11.8,23.2-11C608.4,185.3,610,193.7,609.9,199.2z"/>
	<path class="st16" d="M607,199.3c0,0,0,0,0,0.2c-0.1,0.7-0.8,3.8-2.2,8.1c0,0,0,0,0,0c-0.3,0.8-0.5,1.6-0.9,2.5c0,0,0,0,0,0
		c-1.4,3.9-3.4,8.5-6.2,13.2c-7.2,12.3-18.2,9.1-18.2,9.1l-49.6-10.6l18.4-42.6l10.5-18.6l2.2-3.9c0,0,4.7,5.2,9.5,8.2
		c4.8,3,25,16,31.6,20.5C608.7,189.9,607,199.3,607,199.3z"/>
	<path class="st16" d="M603.9,210.1c0-0.4,0.3-1.2,0.9-2.5C604.5,208.4,604.2,209.2,603.9,210.1z"/>
	<path class="st17" d="M607,199.3c0,0,0,0,0,0.2c-1.7-15.8-39.5-30.2-42.7-32.2c-1.5-1-3.6-3.8-5.5-6.7l2.2-3.9c0,0,4.7,5.2,9.5,8.2
		c4.8,3,25,16,31.6,20.5C608.7,189.9,607,199.3,607,199.3z"/>
	<path class="st18" d="M495.1,155.8c0,0,8.7-12.8,21.9-11.1c13.2,1.6,42.7,11.1,42.7,11.1s3.4,1,0.7,5.1c-2.8,4.1-15.2,30.7-18,36.6
		c-2.8,5.9-6.9,16.5-6.9,18.5s-1.3,7.8-7.2,5.9c-5.9-2-27.3-12.8-30.1-13.6c-2.8-0.8-18-9.2-14.4-23.7S495.1,155.8,495.1,155.8z"/>
	<path class="st19" d="M487.4,165.1c-9.3,20.6-4.9,30.9,14.9,37.9s19.8,7,19.8,7s6.7,3.3,11.1-6.2s15.7-35,15.7-35s2.8-8.5-5.6-11.8
		c-8.3-3.3-27-8.5-27-8.5S497.7,142.4,487.4,165.1z"/>
	<path class="st18" d="M496.9,165.9c-5.4,13.1-8.7,25.3-1.5,30.1c7.2,4.7,16.5,7.8,16.5,7.8s10,2.8,14.6-5.1
		c4.6-7.8,13.7-29.6,13.7-29.6s3.4-9.2-4.1-11.9c-7.5-2.8-18.6-6.2-19.9-6.2s-7-1-10.5,2.5C502.3,156.9,496.9,165.9,496.9,165.9z"/>
	<path class="st20" d="M684.8,261.5c-0.6,0.7-1.1,1.3-1.7,1.9c-7.4,7.8-15.2,7.7-18.5,13.6c-2.7-2.8-9-9.3-14.7-15.2
		c-5.1-5.2-9.7-9.8-11.1-10.6c-2.7-1.7-24.7-14.9-39.8-24c-8.2-4.9-14.4-8.6-14.4-8.6l5.1-12.2l3.2-7.6l0.7-1.6
		c0,0,32.9,19.8,37.3,22.8c1.8,1.3,13.6,10.3,25.9,19.8C668,248.5,679.7,257.5,684.8,261.5z"/>
	<path class="st21" d="M684.8,261.5c-0.6,0.7-1.1,1.3-1.7,1.9l-49.3-37.2l-40.8-27.4l0.7-1.6c0,0,32.9,19.8,37.3,22.8
		c1.8,1.3,13.6,10.3,25.9,19.8C668,248.5,679.7,257.5,684.8,261.5z"/>
	<path class="st22" d="M595.2,191.9c0,0-9.6,25.8-13.1,30.7"/>
	<path class="st23" d="M612.6,223.8c3.1-6.8,4.9-10.1,4.9-10.1s1.4-3,3.3-2.3c1.9,0.8,8.9,4.7,8.9,4.7s2.4,1.7,0.2,6.4
		c-2.3,4.8-8.3,14.7-8.3,14.7s-1.7,3.8-3.4,2.8c-1.8-1-9.1-4.9-9.1-4.9s-1.8-1.2,0-4.4C610.8,227.4,612.6,223.8,612.6,223.8z"/>
	<polygon class="st20" points="621,214.7 611.4,233.1 619,237 628.3,219 	"/>
	<path class="st18" d="M563.4,176.4c0,0-1.3,3.6-3,8.1c-0.4,1-0.8,2.1-1.2,3.1c-1.5,3.9-3.1,8-4.4,10.9c-0.4,0.8-0.7,1.5-1,2
		c-0.2,0.4-0.4,0.8-0.7,1.2c-3,5.6-6.5,10.7-8,10.3c-1.7-0.4-0.2-4.9,0.4-5.9c0.3-0.5,1.5-3.2,2.9-6.4c0.4-1,0.9-2.1,1.4-3.1
		c1.3-3,2.6-6.1,3.4-7.9c0.3-0.8,0.8-1.8,1.3-3c0.4-0.9,0.8-2,1.3-3c2.2-5,4.8-10.6,6.4-10.7C565.6,171.8,563.4,176.4,563.4,176.4z"
		/>
	<path class="st16" d="M560.5,184.5c-0.4,1-0.8,2.1-1.2,3.1l-4.6-1.9c0.4-0.9,0.8-2,1.3-3L560.5,184.5z"/>
	<path class="st16" d="M554.8,198.5c-0.4,0.8-0.7,1.5-1,2c-0.2,0.4-0.4,0.8-0.7,1.2l-4.7-2c0.4-1,0.9-2.1,1.4-3.1L554.8,198.5z"/>
	<line class="st24" x1="628.3" y1="219" x2="619" y2="237"/>
	<line class="st24" x1="621" y1="215" x2="611.8" y2="233"/>
	<g>
		<g class="st25">
			<g>
				<polygon class="st26" points="170.4,182.1 141.9,218.3 81.8,208.6 110.4,172.4 				"/>
			</g>
			<g>
				<polygon class="st27" points="110.4,172.4 81.8,208.6 75.5,152.8 104,116.7 				"/>
			</g>
			<g>
				<polygon class="st28" points="164,126.4 170.4,182.1 110.4,172.4 104,116.7 				"/>
			</g>
		</g>
	</g>
	<g>
		<g class="st25">
			<g>
				<polygon class="st26" points="130.7,85.1 121.8,96.4 103,93.4 111.9,82.1 				"/>
			</g>
			<g>
				<polygon class="st27" points="111.9,82.1 103,93.4 101,76 109.9,64.7 				"/>
			</g>
			<g>
				<polygon class="st28" points="128.7,67.7 130.7,85.1 111.9,82.1 109.9,64.7 				"/>
			</g>
		</g>
	</g>
	<g>
		<g class="st25">
			<g>
				<polygon class="st29" points="182.6,58.8 160.7,76.6 167.1,113.5 189.1,95.6 				"/>
			</g>
			<g>
				<polygon class="st30" points="189.1,95.6 167.1,113.5 201.5,116.9 223.4,99 				"/>
			</g>
			<g>
				<polygon class="st31" points="216.9,62.2 182.6,58.8 189.1,95.6 223.4,99 				"/>
			</g>
		</g>
	</g>
	<g>
		<g class="st25">
			<g>
				<polygon class="st29" points="46.8,150.8 58.3,160.1 54.9,179.4 43.4,170 				"/>
			</g>
			<g>
				<polygon class="st30" points="43.4,170 54.9,179.4 36.9,181.2 25.4,171.8 				"/>
			</g>
			<g>
				<polygon class="st31" points="28.8,152.6 46.8,150.8 43.4,170 25.4,171.8 				"/>
			</g>
		</g>
	</g>
	<path class="st28" d="M252.2,127.8c-0.3,0-0.5,0-0.7,0.1c-1.8,0.3-3.3,1.4-4.1,3.1l-15.3,35.9c-0.8,1.8-0.5,3.6,0.6,5.1
		c1.1,1.5,3,2.3,4.8,2l40-5.1c1.9-0.3,3.5-1.4,4.1-3.2c0.7-1.8,0.4-3.7-0.8-5.1l-24.7-30.8C255.3,128.5,253.8,127.8,252.2,127.8
		L252.2,127.8z M236.9,176.6c-2.4,0-4.6-1.1-6.1-3.1c-1.7-2.2-2-5.1-0.9-7.7l15.3-36c1.1-2.5,3.3-4.2,6-4.6c2.7-0.3,5.3,0.7,7,2.8
		l24.7,30.8c1.8,2.2,2.2,5.1,1.1,7.7c-1.1,2.6-3.3,4.4-6.2,4.8l-40,5.1C237.6,176.6,237.2,176.6,236.9,176.6L236.9,176.6z"/>
	<path class="st32" d="M62.4,56.8c0.9,0,1.6,0.7,1.6,1.6c0,0.3-0.1,0.5-0.2,0.8c0,0,0,0,0,0c0,0,0,0,0,0c0,0,0,0,0,0
		c-0.3,0.5-0.8,0.8-1.4,0.8c-0.6,0-1.1-0.3-1.4-0.8c-0.1-0.2-0.2-0.5-0.2-0.8C60.8,57.6,61.5,56.8,62.4,56.8L62.4,56.8z M61,41.6
		c-0.1-0.2-0.2-0.5-0.2-0.8c0-0.9,0.7-1.6,1.6-1.6c0.9,0,1.6,0.7,1.6,1.6c0,0.3-0.1,0.5-0.2,0.8c0,0,0,0,0,0s0,0,0,0
		c-0.3,0.5-0.8,0.8-1.4,0.8C61.8,42.4,61.3,42.1,61,41.6L61,41.6z M64.1,42.1l11.2,6.3c-0.1,0.2-0.2,0.5-0.2,0.8
		c0,0.4,0.1,0.7,0.3,1.1c0.3,0.6,0.9,1,1.6,1.1V64c-0.8,0.1-1.4,0.6-1.7,1.3l-10.9-6c0.1-0.3,0.2-0.5,0.2-0.8c0-1.1-0.8-2-1.9-2.1
		l0-13.3C63.2,42.9,63.7,42.6,64.1,42.1L64.1,42.1z M75.6,33.7c0.4,0.5,1,0.9,1.7,0.9c0.7,0,1.3-0.3,1.7-0.9L90.2,40
		c-0.1,0.2-0.2,0.5-0.2,0.8c0,0.3,0.1,0.5,0.2,0.8L79,47.9c-0.4-0.5-1-0.8-1.7-0.8c-0.7,0-1.3,0.3-1.7,0.8l-11.2-6.3
		c0.1-0.2,0.2-0.5,0.2-0.8c0-0.3-0.1-0.5-0.2-0.8L75.6,33.7z M77.3,30.8c0.9,0,1.6,0.7,1.6,1.6c0,0.3-0.1,0.5-0.2,0.8
		c-0.3,0.5-0.8,0.8-1.4,0.8c-0.6,0-1.1-0.3-1.4-0.8c-0.1-0.2-0.2-0.5-0.2-0.8C75.7,31.6,76.4,30.8,77.3,30.8L77.3,30.8z M91.9,42.9
		v13.3c-1.1,0.1-1.9,1-1.9,2.1c0,0.3,0.1,0.5,0.2,0.8l-10.9,6c-0.3-0.7-0.9-1.2-1.7-1.3V51.3c0.7-0.1,1.3-0.5,1.6-1.1
		c0.2-0.3,0.3-0.7,0.3-1.1c0-0.3-0.1-0.6-0.2-0.8l11.2-6.3C90.8,42.6,91.3,42.9,91.9,42.9L91.9,42.9z M92.2,39.2
		c0.9,0,1.6,0.7,1.6,1.6c0,0.3-0.1,0.5-0.2,0.8c-0.3,0.5-0.8,0.8-1.4,0.8c-0.6,0-1.1-0.3-1.4-0.8c-0.1-0.2-0.2-0.5-0.2-0.8
		C90.6,39.9,91.3,39.2,92.2,39.2L92.2,39.2z M93.8,58.4c0,0.3-0.1,0.5-0.2,0.8c-0.3,0.5-0.8,0.8-1.4,0.8c-0.6,0-1.1-0.3-1.4-0.8v0
		c0,0,0,0,0,0c0,0,0,0,0,0c-0.1-0.2-0.2-0.5-0.2-0.8c0-0.9,0.7-1.6,1.6-1.6C93,56.8,93.8,57.6,93.8,58.4L93.8,58.4z M75.9,50
		c-0.1-0.2-0.2-0.5-0.2-0.8c0-0.9,0.7-1.6,1.6-1.6c0.9,0,1.6,0.7,1.6,1.6c0,0.3-0.1,0.5-0.2,0.8c-0.3,0.5-0.8,0.8-1.4,0.8
		C76.7,50.8,76.2,50.5,75.9,50L75.9,50z M78.6,66.9c-0.3,0.5-0.8,0.8-1.4,0.8c-0.6,0-1.1-0.3-1.4-0.8c-0.1-0.2-0.2-0.5-0.2-0.8
		c0-0.9,0.7-1.6,1.6-1.6c0.9,0,1.6,0.7,1.6,1.6C78.8,66.4,78.8,66.6,78.6,66.9L78.6,66.9z M60.2,58.4c0,0.4,0.1,0.7,0.3,1.1
		c0.4,0.7,1.1,1.1,1.9,1.1c0.7,0,1.3-0.3,1.7-0.9l11,6.1c0,0.1,0,0.2,0,0.3c0,0.4,0.1,0.7,0.3,1.1c0.4,0.7,1.1,1.1,1.9,1.1
		c0.8,0,1.5-0.4,1.9-1.1c0.2-0.3,0.3-0.7,0.3-1.1c0-0.1,0-0.2,0-0.3l11-6.1c0.4,0.5,1,0.9,1.7,0.9c0.8,0,1.5-0.4,1.9-1.1
		c0.2-0.3,0.3-0.7,0.3-1.1c0-1.1-0.8-2-1.9-2.1V42.9c0.7-0.1,1.2-0.5,1.6-1.1c0.2-0.3,0.3-0.7,0.3-1.1c0-1.2-1-2.2-2.2-2.2
		c-0.7,0-1.3,0.3-1.7,0.8l-11.2-6.3c0.1-0.3,0.2-0.5,0.2-0.8c0-1.2-1-2.2-2.2-2.2s-2.2,1-2.2,2.2c0,0.3,0.1,0.5,0.2,0.8l-11.2,6.3
		c-0.4-0.5-1-0.9-1.7-0.9c-1.2,0-2.2,1-2.2,2.2c0,0.4,0.1,0.7,0.3,1.1c0.3,0.6,0.9,1,1.6,1.1v13.3C61,56.4,60.2,57.3,60.2,58.4
		L60.2,58.4z"/>
	<polygon class="st27" points="124.6,258 144.5,254.3 157.6,269.7 150.8,288.8 130.9,292.4 117.9,277 	"/>
</g>
</svg>
